<mxfile host="app.diagrams.net" agent="Mozilla/5.0 (Windows NT 10.0; Win64; x64) AppleWebKit/537.36 (KHTML, like Gecko) Chrome/131.0.0.0 Safari/537.36 Edg/131.0.0.0" version="24.9.0">
  <diagram name="Page-1" id="dNSToHY4ABR2LA3GqfFR">
    <mxGraphModel dx="1002" dy="985" grid="0" gridSize="10" guides="1" tooltips="1" connect="1" arrows="1" fold="1" page="1" pageScale="1" pageWidth="1169" pageHeight="827" math="0" shadow="0">
      <root>
        <mxCell id="0" />
        <mxCell id="1" parent="0" />
        <mxCell id="YkygkdI7NCDXmESF5mo2-1" value="Serverless architecture" style="rounded=0;whiteSpace=wrap;html=1;" vertex="1" parent="1">
          <mxGeometry x="23" y="148" width="259" height="60" as="geometry" />
        </mxCell>
        <mxCell id="YkygkdI7NCDXmESF5mo2-11" value="" style="edgeStyle=none;curved=1;rounded=0;orthogonalLoop=1;jettySize=auto;html=1;fontSize=12;startSize=8;endSize=8;" edge="1" parent="1" source="YkygkdI7NCDXmESF5mo2-3" target="YkygkdI7NCDXmESF5mo2-10">
          <mxGeometry relative="1" as="geometry" />
        </mxCell>
        <mxCell id="YkygkdI7NCDXmESF5mo2-3" value="Users" style="sketch=0;outlineConnect=0;fontColor=#232F3E;gradientColor=none;strokeColor=#232F3E;fillColor=#ffffff;dashed=0;verticalLabelPosition=bottom;verticalAlign=top;align=center;html=1;fontSize=12;fontStyle=0;aspect=fixed;shape=mxgraph.aws4.resourceIcon;resIcon=mxgraph.aws4.users;" vertex="1" parent="1">
          <mxGeometry x="36" y="405" width="60" height="60" as="geometry" />
        </mxCell>
        <mxCell id="YkygkdI7NCDXmESF5mo2-13" value="" style="edgeStyle=none;curved=1;rounded=0;orthogonalLoop=1;jettySize=auto;html=1;fontSize=12;startSize=8;endSize=8;" edge="1" parent="1" source="YkygkdI7NCDXmESF5mo2-10" target="YkygkdI7NCDXmESF5mo2-12">
          <mxGeometry relative="1" as="geometry" />
        </mxCell>
        <mxCell id="YkygkdI7NCDXmESF5mo2-17" style="edgeStyle=none;curved=1;rounded=0;orthogonalLoop=1;jettySize=auto;html=1;fontSize=12;startSize=8;endSize=8;" edge="1" parent="1" source="YkygkdI7NCDXmESF5mo2-10" target="YkygkdI7NCDXmESF5mo2-14">
          <mxGeometry relative="1" as="geometry">
            <Array as="points">
              <mxPoint x="300" y="326" />
            </Array>
          </mxGeometry>
        </mxCell>
        <mxCell id="YkygkdI7NCDXmESF5mo2-10" value="Client" style="sketch=0;outlineConnect=0;fontColor=#232F3E;gradientColor=none;strokeColor=#232F3E;fillColor=#ffffff;dashed=0;verticalLabelPosition=bottom;verticalAlign=top;align=center;html=1;fontSize=12;fontStyle=0;aspect=fixed;shape=mxgraph.aws4.resourceIcon;resIcon=mxgraph.aws4.client;" vertex="1" parent="1">
          <mxGeometry x="162" y="405" width="60" height="60" as="geometry" />
        </mxCell>
        <mxCell id="YkygkdI7NCDXmESF5mo2-15" style="edgeStyle=none;curved=1;rounded=0;orthogonalLoop=1;jettySize=auto;html=1;fontSize=12;startSize=8;endSize=8;" edge="1" parent="1" source="YkygkdI7NCDXmESF5mo2-12" target="YkygkdI7NCDXmESF5mo2-14">
          <mxGeometry relative="1" as="geometry">
            <Array as="points">
              <mxPoint x="427" y="341" />
            </Array>
          </mxGeometry>
        </mxCell>
        <mxCell id="YkygkdI7NCDXmESF5mo2-12" value="Amazon Route 53" style="sketch=0;outlineConnect=0;fontColor=#232F3E;gradientColor=none;strokeColor=#ffffff;fillColor=#232F3E;dashed=0;verticalLabelPosition=middle;verticalAlign=bottom;align=center;html=1;whiteSpace=wrap;fontSize=10;fontStyle=1;spacing=3;shape=mxgraph.aws4.productIcon;prIcon=mxgraph.aws4.route_53;" vertex="1" parent="1">
          <mxGeometry x="321" y="380" width="80" height="110" as="geometry" />
        </mxCell>
        <mxCell id="YkygkdI7NCDXmESF5mo2-20" value="" style="edgeStyle=none;curved=1;rounded=0;orthogonalLoop=1;jettySize=auto;html=1;fontSize=12;startSize=8;endSize=8;" edge="1" parent="1" source="YkygkdI7NCDXmESF5mo2-14" target="YkygkdI7NCDXmESF5mo2-19">
          <mxGeometry relative="1" as="geometry" />
        </mxCell>
        <mxCell id="YkygkdI7NCDXmESF5mo2-21" value="Authenticate" style="edgeLabel;html=1;align=center;verticalAlign=middle;resizable=0;points=[];fontSize=12;" vertex="1" connectable="0" parent="YkygkdI7NCDXmESF5mo2-20">
          <mxGeometry x="-0.1648" y="1" relative="1" as="geometry">
            <mxPoint as="offset" />
          </mxGeometry>
        </mxCell>
        <mxCell id="YkygkdI7NCDXmESF5mo2-23" value="" style="edgeStyle=none;curved=1;rounded=0;orthogonalLoop=1;jettySize=auto;html=1;fontSize=12;startSize=8;endSize=8;" edge="1" parent="1" source="YkygkdI7NCDXmESF5mo2-14" target="YkygkdI7NCDXmESF5mo2-22">
          <mxGeometry relative="1" as="geometry" />
        </mxCell>
        <mxCell id="YkygkdI7NCDXmESF5mo2-29" value="Dynamic API&lt;div&gt;Calls&lt;/div&gt;" style="edgeLabel;html=1;align=center;verticalAlign=middle;resizable=0;points=[];fontSize=12;" vertex="1" connectable="0" parent="YkygkdI7NCDXmESF5mo2-23">
          <mxGeometry x="-0.1511" relative="1" as="geometry">
            <mxPoint as="offset" />
          </mxGeometry>
        </mxCell>
        <mxCell id="YkygkdI7NCDXmESF5mo2-28" style="edgeStyle=none;curved=1;rounded=0;orthogonalLoop=1;jettySize=auto;html=1;fontSize=12;startSize=8;endSize=8;" edge="1" parent="1" source="YkygkdI7NCDXmESF5mo2-14" target="YkygkdI7NCDXmESF5mo2-24">
          <mxGeometry relative="1" as="geometry">
            <Array as="points">
              <mxPoint x="579" y="473" />
            </Array>
          </mxGeometry>
        </mxCell>
        <mxCell id="YkygkdI7NCDXmESF5mo2-30" value="Static website&lt;div&gt;HTML, CSS&lt;/div&gt;" style="edgeLabel;html=1;align=center;verticalAlign=middle;resizable=0;points=[];fontSize=12;" vertex="1" connectable="0" parent="YkygkdI7NCDXmESF5mo2-28">
          <mxGeometry x="-0.4343" y="23" relative="1" as="geometry">
            <mxPoint as="offset" />
          </mxGeometry>
        </mxCell>
        <mxCell id="YkygkdI7NCDXmESF5mo2-14" value="Amazon Cloudfront" style="sketch=0;outlineConnect=0;fontColor=#232F3E;gradientColor=none;strokeColor=#ffffff;fillColor=#232F3E;dashed=0;verticalLabelPosition=middle;verticalAlign=bottom;align=center;html=1;whiteSpace=wrap;fontSize=10;fontStyle=1;spacing=3;shape=mxgraph.aws4.productIcon;prIcon=mxgraph.aws4.cloudfront;" vertex="1" parent="1">
          <mxGeometry x="451" y="290" width="80" height="110" as="geometry" />
        </mxCell>
        <mxCell id="YkygkdI7NCDXmESF5mo2-19" value="Amazon Cognito" style="sketch=0;outlineConnect=0;fontColor=#232F3E;gradientColor=none;strokeColor=#ffffff;fillColor=#232F3E;dashed=0;verticalLabelPosition=middle;verticalAlign=bottom;align=center;html=1;whiteSpace=wrap;fontSize=10;fontStyle=1;spacing=3;shape=mxgraph.aws4.productIcon;prIcon=mxgraph.aws4.cognito;" vertex="1" parent="1">
          <mxGeometry x="451" y="89" width="80" height="110" as="geometry" />
        </mxCell>
        <mxCell id="YkygkdI7NCDXmESF5mo2-32" value="" style="edgeStyle=none;curved=1;rounded=0;orthogonalLoop=1;jettySize=auto;html=1;fontSize=12;startSize=8;endSize=8;" edge="1" parent="1" source="YkygkdI7NCDXmESF5mo2-22" target="YkygkdI7NCDXmESF5mo2-31">
          <mxGeometry relative="1" as="geometry" />
        </mxCell>
        <mxCell id="YkygkdI7NCDXmESF5mo2-22" value="Amazon API Gateway" style="sketch=0;outlineConnect=0;fontColor=#232F3E;gradientColor=none;strokeColor=#ffffff;fillColor=#232F3E;dashed=0;verticalLabelPosition=middle;verticalAlign=bottom;align=center;html=1;whiteSpace=wrap;fontSize=10;fontStyle=1;spacing=3;shape=mxgraph.aws4.productIcon;prIcon=mxgraph.aws4.api_gateway;" vertex="1" parent="1">
          <mxGeometry x="760" y="290" width="80" height="110" as="geometry" />
        </mxCell>
        <mxCell id="YkygkdI7NCDXmESF5mo2-24" value="" style="sketch=0;outlineConnect=0;fontColor=#232F3E;gradientColor=none;fillColor=#7AA116;strokeColor=none;dashed=0;verticalLabelPosition=bottom;verticalAlign=top;align=center;html=1;fontSize=12;fontStyle=0;aspect=fixed;pointerEvents=1;shape=mxgraph.aws4.bucket;" vertex="1" parent="1">
          <mxGeometry x="762" y="480" width="75" height="78" as="geometry" />
        </mxCell>
        <mxCell id="YkygkdI7NCDXmESF5mo2-26" value="&lt;font style=&quot;font-size: 12px;&quot;&gt;Amazon S3&lt;/font&gt;&lt;div&gt;&lt;font style=&quot;font-size: 12px;&quot;&gt;Bucket&lt;/font&gt;&lt;/div&gt;" style="text;html=1;align=center;verticalAlign=middle;resizable=0;points=[];autosize=1;strokeColor=none;fillColor=none;fontSize=16;" vertex="1" parent="1">
          <mxGeometry x="760" y="550" width="80" height="50" as="geometry" />
        </mxCell>
        <mxCell id="YkygkdI7NCDXmESF5mo2-34" value="" style="edgeStyle=none;curved=1;rounded=0;orthogonalLoop=1;jettySize=auto;html=1;fontSize=12;startSize=8;endSize=8;" edge="1" parent="1" source="YkygkdI7NCDXmESF5mo2-31" target="YkygkdI7NCDXmESF5mo2-33">
          <mxGeometry relative="1" as="geometry" />
        </mxCell>
        <mxCell id="YkygkdI7NCDXmESF5mo2-31" value="AWS Lambda" style="sketch=0;outlineConnect=0;fontColor=#232F3E;gradientColor=none;strokeColor=#ffffff;fillColor=#232F3E;dashed=0;verticalLabelPosition=middle;verticalAlign=bottom;align=center;html=1;whiteSpace=wrap;fontSize=10;fontStyle=1;spacing=3;shape=mxgraph.aws4.productIcon;prIcon=mxgraph.aws4.lambda;" vertex="1" parent="1">
          <mxGeometry x="905" y="295" width="80" height="100" as="geometry" />
        </mxCell>
        <mxCell id="YkygkdI7NCDXmESF5mo2-33" value="Amazon DynamoDB" style="sketch=0;outlineConnect=0;fontColor=#232F3E;gradientColor=none;strokeColor=#ffffff;fillColor=#232F3E;dashed=0;verticalLabelPosition=middle;verticalAlign=bottom;align=center;html=1;whiteSpace=wrap;fontSize=10;fontStyle=1;spacing=3;shape=mxgraph.aws4.productIcon;prIcon=mxgraph.aws4.dynamodb;" vertex="1" parent="1">
          <mxGeometry x="1050" y="290" width="80" height="110" as="geometry" />
        </mxCell>
        <mxCell id="YkygkdI7NCDXmESF5mo2-35" value="AWS Cloud" style="points=[[0,0],[0.25,0],[0.5,0],[0.75,0],[1,0],[1,0.25],[1,0.5],[1,0.75],[1,1],[0.75,1],[0.5,1],[0.25,1],[0,1],[0,0.75],[0,0.5],[0,0.25]];outlineConnect=0;gradientColor=none;html=1;whiteSpace=wrap;fontSize=12;fontStyle=0;container=1;pointerEvents=0;collapsible=0;recursiveResize=0;shape=mxgraph.aws4.group;grIcon=mxgraph.aws4.group_aws_cloud_alt;strokeColor=#232F3E;fillColor=none;verticalAlign=top;align=left;spacingLeft=30;fontColor=#232F3E;dashed=0;" vertex="1" parent="1">
          <mxGeometry x="308" y="70" width="830" height="656" as="geometry" />
        </mxCell>
      </root>
    </mxGraphModel>
  </diagram>
</mxfile>
